<svg width="22" height="22" viewBox="0 0 22 22" fill="none" xmlns="http://www.w3.org/2000/svg">
<g clip-path="url(#clip0_3_1237)">
<path d="M21.9785 6.46806C21.9269 5.29908 21.7379 4.4955 21.4671 3.79909C21.1877 3.05993 20.758 2.39817 20.195 1.84802C19.6448 1.28931 18.9786 0.855159 18.248 0.580192C17.5477 0.309435 16.7482 0.120336 15.5793 0.0688494C14.4016 0.0128931 14.0277 0 11.0408 0C8.05387 0 7.68002 0.0128931 6.5067 0.0644657C5.33776 0.116038 4.53413 0.305224 3.83794 0.575808C3.09857 0.855159 2.4368 1.28493 1.88665 1.84802C1.32795 2.39812 0.894009 3.06427 0.618827 3.79488C0.348071 4.4955 0.159014 5.29478 0.107485 6.46368C0.0515714 7.64138 0.0386353 8.01524 0.0386353 11.0022C0.0386353 13.9891 0.0515714 14.363 0.103101 15.5362C0.154674 16.7052 0.343859 17.5088 0.614658 18.2052C0.894009 18.9444 1.32795 19.6061 1.88665 20.1563C2.4368 20.715 3.10295 21.1491 3.83356 21.4241C4.53409 21.6949 5.33338 21.884 6.50253 21.9355C7.67563 21.9872 8.0497 21.9999 11.0366 21.9999C14.0235 21.9999 14.3974 21.9872 15.5707 21.9355C16.7396 21.8839 17.5433 21.6949 18.2395 21.4241C18.9706 21.1414 19.6347 20.709 20.1891 20.1547C20.7434 19.6004 21.1758 18.9364 21.4586 18.2052C21.7292 17.5046 21.9184 16.7052 21.9699 15.5362C22.0215 14.363 22.0344 13.9891 22.0344 11.0022C22.0344 8.01524 22.03 7.64134 21.9785 6.46806ZM19.9974 15.4503C19.95 16.5247 19.7695 17.1049 19.6191 17.4917C19.2494 18.4501 18.4888 19.2108 17.5303 19.5805C17.1435 19.7309 16.5592 19.9114 15.4889 19.9585C14.3285 20.0102 13.9805 20.023 11.0452 20.023C8.10979 20.023 7.75742 20.0102 6.6012 19.9585C5.52677 19.9114 4.94658 19.7309 4.55979 19.5805C4.08287 19.4042 3.64876 19.1248 3.29635 18.7595C2.93104 18.4028 2.65169 17.973 2.4754 17.4961C2.32498 17.1093 2.14452 16.5247 2.09737 15.4547C2.04562 14.2943 2.0329 13.9461 2.0329 11.0107C2.0329 8.07532 2.04562 7.72295 2.09737 6.56695C2.14452 5.49252 2.32498 4.91233 2.4754 4.52554C2.65169 4.0484 2.93104 3.61438 3.30073 3.26188C3.65727 2.89657 4.08704 2.61722 4.56417 2.44115C4.95097 2.29072 5.53554 2.11022 6.60559 2.0629C7.76597 2.01133 8.11417 1.99844 11.0493 1.99844C13.9891 1.99844 14.3371 2.01133 15.4933 2.0629C16.5677 2.11026 17.1479 2.29068 17.5347 2.4411C18.0116 2.61722 18.4458 2.89657 18.7982 3.26188C19.1635 3.61863 19.4428 4.0484 19.6191 4.52554C19.7695 4.91233 19.95 5.49669 19.9973 6.56695C20.0489 7.72733 20.0618 8.07532 20.0618 11.0107C20.0618 13.9461 20.0489 14.2899 19.9974 15.4503Z" fill="white"/>
<path d="M11.0408 5.35066C7.92078 5.35066 5.38934 7.88192 5.38934 11.0022C5.38934 14.1224 7.92078 16.6536 11.0408 16.6536C14.161 16.6536 16.6923 14.1224 16.6923 11.0022C16.6923 7.88192 14.161 5.35066 11.0408 5.35066ZM11.0408 14.6681C9.0167 14.6681 7.3748 13.0265 7.3748 11.0022C7.3748 8.97784 9.0167 7.3362 11.0408 7.3362C13.0651 7.3362 14.7068 8.97784 14.7068 11.0022C14.7068 13.0265 13.0651 14.6681 11.0408 14.6681ZM18.2353 5.12717C18.2353 5.85581 17.6445 6.44657 16.9157 6.44657C16.1871 6.44657 15.5964 5.85581 15.5964 5.12717C15.5964 4.39845 16.1871 3.80786 16.9158 3.80786C17.6445 3.80786 18.2353 4.39841 18.2353 5.12717Z" fill="white"/>
</g>
<defs>
<clipPath id="clip0_3_1237">
<rect width="22" height="22" fill="white"/>
</clipPath>
</defs>
</svg>
