<svg width="21" height="22" viewBox="0 0 21 22" fill="none" xmlns="http://www.w3.org/2000/svg">
<path d="M18.4708 15.8787C19.3716 14.4111 19.8473 12.7222 19.845 11.0002C19.8474 9.27808 19.3716 7.58892 18.4708 6.12125L18.4657 6.11306C17.63 4.75084 16.4588 3.6257 15.0642 2.84517C13.6696 2.06463 12.0982 1.65479 10.5 1.65479C8.90182 1.65479 7.33036 2.06463 5.93576 2.84517C4.54116 3.6257 3.37002 4.75084 2.53427 6.11306L2.52923 6.12125C1.63062 7.58991 1.15509 9.27821 1.15509 11C1.15509 12.7217 1.63062 14.41 2.52923 15.8787L2.53448 15.8871C3.37026 17.2493 4.5414 18.3743 5.93599 19.1548C7.33058 19.9353 8.90202 20.3451 10.5002 20.3451C12.0983 20.3451 13.6697 19.9352 15.0643 19.1547C16.4589 18.3742 17.63 17.2491 18.4657 15.8869L18.4708 15.8787ZM11.6945 18.7433C11.5164 18.9152 11.3114 19.0567 11.0876 19.1625C10.9039 19.2497 10.7032 19.295 10.4999 19.295C10.2966 19.295 10.0958 19.2497 9.9122 19.1625C9.48644 18.945 9.12197 18.6243 8.85212 18.2296C8.30104 17.4332 7.89267 16.5471 7.64525 15.6107C8.59585 15.5522 9.54743 15.5224 10.5 15.5213C11.4521 15.5213 12.4038 15.5511 13.3549 15.6107C13.218 16.0921 13.0469 16.5632 12.843 17.0203C12.5745 17.6631 12.1845 18.2481 11.6945 18.7433ZM2.22326 11.525H5.99255C6.01711 12.5767 6.13113 13.6245 6.33338 14.6569C5.30298 14.7476 4.27524 14.8722 3.25016 15.0307C2.64982 13.9537 2.29889 12.7557 2.22326 11.525ZM3.25016 6.96944C4.27482 7.1282 5.30291 7.2528 6.33443 7.34324C6.13183 8.37555 6.0176 9.42325 5.99297 10.475H2.22326C2.29893 9.24434 2.64985 8.04638 3.25016 6.96944ZM9.30551 3.25664C9.48361 3.08477 9.68861 2.94319 9.91241 2.83748C10.096 2.75023 10.2968 2.70497 10.5001 2.70497C10.7034 2.70497 10.9042 2.75023 11.0878 2.83748C11.5135 3.05494 11.878 3.37566 12.1479 3.7703C12.6989 4.5667 13.1073 5.45288 13.3547 6.38921C12.4041 6.44773 11.4525 6.47755 10.5 6.47867C9.54785 6.47867 8.5962 6.44885 7.64504 6.38921C7.78202 5.90781 7.95311 5.43678 8.15702 4.97969C8.42553 4.33685 8.81547 3.75182 9.30551 3.25664ZM18.7767 10.475H15.0074C14.9829 9.42321 14.8688 8.37545 14.6666 7.34303C15.697 7.25231 16.7247 7.12771 17.7498 6.96923C18.3502 8.04624 18.7011 9.24427 18.7767 10.475ZM7.38947 14.5752C7.18415 13.5707 7.0682 12.55 7.04297 11.525H13.9572C13.9322 12.55 13.8165 13.5708 13.6114 14.5754C12.5753 14.5074 11.5382 14.4727 10.5 14.4713C9.46259 14.4713 8.42575 14.5059 7.38947 14.5752ZM13.6105 7.42472C13.8158 8.42925 13.9318 9.44999 13.957 10.475H7.04297C7.06796 9.44993 7.18371 8.42912 7.38884 7.42451C8.42484 7.49255 9.46196 7.52727 10.5002 7.52867C11.5376 7.52867 12.5744 7.49395 13.6107 7.42451L13.6105 7.42472ZM15.007 11.525H18.7767C18.7011 12.7556 18.3501 13.9536 17.7498 15.0305C16.725 14.8717 15.6969 14.7471 14.6655 14.6567C14.8682 13.6244 14.9824 12.5767 15.007 11.525ZM17.1202 6.00302C16.2242 6.13224 15.3257 6.23458 14.4245 6.31004C14.2625 5.70693 14.0536 5.11741 13.7997 4.54688C13.5679 4.02189 13.2761 3.52545 12.9303 3.06743C14.6014 3.57997 16.0679 4.6074 17.1202 6.00302ZM4.63469 5.13446C5.59333 4.17491 6.77271 3.46516 8.06945 3.06743C8.04971 3.09305 8.02955 3.11741 8.01023 3.14324C7.34369 4.10271 6.85817 5.17595 6.57761 6.31004C5.67629 6.23374 4.77707 6.1314 3.87995 6.00302C4.11129 5.69652 4.36347 5.40631 4.63469 5.13446ZM3.87995 15.9969C4.77581 15.8677 5.6744 15.7654 6.57572 15.6899C6.73767 16.293 6.94656 16.8825 7.20047 17.4531C7.43233 17.978 7.72407 18.4745 8.06987 18.9325C6.39877 18.42 4.93233 17.3925 3.87995 15.9969ZM16.3657 16.8655C15.4071 17.825 14.2277 18.5348 12.931 18.9325C12.9507 18.9069 12.9708 18.8825 12.9902 18.8567C13.6567 17.8972 14.1422 16.824 14.4228 15.6899C15.3241 15.7662 16.2233 15.8685 17.1205 15.9969C16.8891 16.3034 16.6369 16.5936 16.3657 16.8655Z" fill="#CC9933"/>
</svg>
