<svg width="189" height="22" viewBox="0 0 189 22" fill="none" xmlns="http://www.w3.org/2000/svg">
<g clip-path="url(#clip0_87_93)">
<path fill-rule="evenodd" clip-rule="evenodd" d="M16.2811 0H0V4.19797H14.3962L16.2811 0ZM8.29799 17.7627H0V21.9606H6.40422L8.29799 17.7627ZM12.2895 8.84635H0V13.0443H10.4135L12.2895 8.84635Z" fill="#1D489C"/>
<path fill-rule="evenodd" clip-rule="evenodd" d="M10.3781 21.9475L16.3343 8.82888H23.2708V21.9825L14.9639 21.9301L10.3781 21.9475ZM18.4454 4.20236L20.3303 0.0524902H23.2663V4.20236H18.4454Z" fill="#CC9933"/>
<path d="M47.2112 19.5119H34.4116V3.59458H47.2112V6.77804H38.585V9.83906H45.3884V13.0313H38.585V16.3284H47.2334V19.5119H47.2112ZM53.2207 16.3284H61.6473V19.5119H49.0562V3.59458H53.2207V16.3284ZM73.622 7.91499C73.622 7.01126 73.1578 6.5594 72.2294 6.5594H68.2999C67.3774 6.5594 66.9162 7.01418 66.9162 7.92374V15.1915C66.9162 16.101 67.3774 16.5558 68.2999 16.5558H72.2205C73.143 16.5558 73.6042 16.101 73.6042 15.1915L73.622 7.91499ZM77.7732 15.1915C77.7732 16.7832 77.4095 17.942 76.6777 18.6592C75.9459 19.3763 74.7751 19.7393 73.1607 19.7393H67.3952C65.7808 19.7393 64.6085 19.3792 63.8781 18.6592C63.1508 17.942 62.7827 16.7832 62.7827 15.1915V7.91499C62.7827 6.32326 63.1508 5.16882 63.8781 4.44729C64.6055 3.72576 65.7808 3.36719 67.3952 3.36719H73.1607C74.7751 3.36719 75.9504 3.73014 76.6777 4.44729C77.4051 5.16444 77.7732 6.32326 77.7732 7.91499V15.1915ZM80.0794 3.59458H89.7656C91.3799 3.59458 92.5552 3.95753 93.2826 4.67468C94.0099 5.39183 94.378 6.55065 94.378 8.14238V10.1889C94.4334 11.2046 94.2113 12.2164 93.735 13.1187C93.5121 13.4731 93.2182 13.7789 92.8711 14.0173C92.5241 14.2556 92.1314 14.4216 91.717 14.5049L94.5998 19.5075H90.1026L87.4416 14.7323H84.2218V19.5119H80.0705V3.59458H80.0794ZM90.2268 8.14238C90.2268 7.23282 89.7656 6.77804 88.8431 6.77804H84.2218V11.5532H88.8342C89.7567 11.5532 90.218 11.0985 90.218 10.1889V8.14238H90.2268ZM105.679 3.59458C107.417 3.59458 108.734 4.03187 109.635 4.90644C110.535 5.78102 110.965 7.09289 110.965 8.80706V14.2819C110.965 15.9961 110.522 17.2963 109.635 18.1825C108.748 19.0688 107.429 19.5061 105.679 19.4944H96.6843V3.59458H105.679ZM106.832 8.84204C106.832 7.4777 106.14 6.79553 104.756 6.79553H100.835V16.3284H104.756C106.14 16.3284 106.832 15.6463 106.832 14.2819V8.84204ZM115.48 19.5294H110.974L117.086 3.59458H121.698L127.81 19.5119H123.295L122.257 16.6695H116.491L115.453 19.5119L115.48 19.5294ZM117.529 13.7134H121.219L119.392 8.36977L117.529 13.7134Z" fill="#1D489C"/>
<path d="M141.146 19.5075H132.843V16.324H134.919V6.77365H132.843V3.59018H141.146V6.77365H139.07V16.324H141.146V19.5075ZM157.289 19.5075H152.907L147.373 9.95711V19.5075H143.221V3.59018H147.603L153.138 13.1406V3.59018H157.289V19.5075ZM164.208 19.5075H160.057V3.59018H172.856V6.77365H164.208V10.5256H171.011V13.709H164.208V19.5075ZM184.849 7.9106C184.849 7.00104 184.388 6.54626 183.465 6.54626H179.544C178.622 6.54626 178.161 7.00104 178.161 7.9106V15.1871C178.161 16.0966 178.622 16.5514 179.544 16.5514H183.465C184.388 16.5514 184.849 16.0966 184.849 15.1871V7.9106ZM189 15.1871C189 16.7788 188.632 17.9376 187.905 18.6548C187.177 19.3719 186.002 19.7349 184.388 19.7349H178.622C177.008 19.7349 175.832 19.3763 175.105 18.6548C174.378 17.9333 174.009 16.7788 174.009 15.1871V7.9106C174.009 6.31887 174.375 5.16297 175.105 4.4429C175.832 3.72574 177.008 3.36279 178.622 3.36279H184.388C186.002 3.36279 187.173 3.72574 187.905 4.4429C188.636 5.16005 189 6.31887 189 7.9106V15.1871Z" fill="#CC9933"/>
</g>
<defs>
<clipPath id="clip0_87_93">
<rect width="189" height="22" fill="white"/>
</clipPath>
</defs>
</svg>
