<svg width="24" height="24" viewBox="0 0 24 24" fill="none" xmlns="http://www.w3.org/2000/svg">
<g clip-path="url(#clip0_3_1246)">
<path d="M12 24C18.616 24 24 18.616 24 12C24 5.38401 18.6161 0 12 0C5.38394 0 0 5.38401 0 12C0 18.616 5.38401 24 12 24ZM12 1.59997C17.736 1.59997 22.4 6.26396 22.4 12C22.4 17.736 17.736 22.4 12 22.4C6.26396 22.4 1.59997 17.736 1.59997 12C1.59997 6.26396 6.26402 1.59997 12 1.59997Z" fill="#CC9933"/>
<path d="M15.5 15.824C15.648 15.944 15.824 16.0001 16 16.0001C16.1199 16.0003 16.2383 15.9734 16.3463 15.9215C16.4544 15.8696 16.5493 15.7939 16.624 15.7001C16.9 15.3561 16.8439 14.8521 16.5 14.576L12.8 11.616V5.60004C12.8 5.16003 12.44 4.80005 12 4.80005C11.56 4.80005 11.2 5.16003 11.2 5.60004V12.0001C11.2 12.2441 11.312 12.4721 11.5 12.624L15.5 15.824Z" fill="#CC9933"/>
</g>
<defs>
<clipPath id="clip0_3_1246">
<rect width="24" height="24" fill="white"/>
</clipPath>
</defs>
</svg>
