<svg width="20" height="20" viewBox="0 0 20 20" fill="none" xmlns="http://www.w3.org/2000/svg">
<path d="M18.7625 5.01514C17.6211 5.01514 16.568 4.63701 15.7223 3.99912C14.7523 3.26787 14.0555 2.19522 13.8094 0.958887C13.7477 0.648023 13.7152 0.332057 13.7125 0.0151367H10.452V8.92451L10.448 13.8046C10.448 15.1093 9.59844 16.2155 8.4207 16.6046C8.06793 16.7212 7.69637 16.7705 7.32539 16.7499C6.83476 16.723 6.375 16.5749 5.97539 16.3358C5.125 15.8273 4.54844 14.9046 4.53281 13.8491C4.5082 12.1995 5.8418 10.8546 7.49023 10.8546C7.81562 10.8546 8.12812 10.9077 8.4207 11.0042V7.69366C8.11211 7.64795 7.79805 7.62412 7.48047 7.62412C5.67617 7.62412 3.98867 8.37412 2.78242 9.7253C1.8707 10.7464 1.32383 12.0491 1.23945 13.4151C1.1289 15.2097 1.78554 16.9155 3.05898 18.1741C3.24609 18.3589 3.44258 18.5304 3.64805 18.6886C4.73984 19.5288 6.07461 19.9843 7.48047 19.9843C7.79805 19.9843 8.11211 19.9608 8.4207 19.9151C9.73398 19.7206 10.9457 19.1194 11.902 18.1741C13.077 17.0128 13.7262 15.471 13.7332 13.83L13.7164 6.54248C14.2783 6.97587 14.8938 7.33483 15.5477 7.61045C16.5707 8.04209 17.6555 8.26084 18.7719 8.26045V5.01436C18.7727 5.01514 18.7633 5.01514 18.7625 5.01514Z" fill="white"/>
</svg>
